<svg width="96" height="100" viewBox="0 0 96 100" fill="none" xmlns="http://www.w3.org/2000/svg">
<g clip-path="url(#clip0_370_1097)">
<path d="M54.9116 90.1183C54.9488 89.4378 55.0117 88.7908 55.0117 88.1438C55.026 81.9884 55.0117 75.833 55.0346 69.6776C55.0346 67.2362 55.2348 67.044 57.4685 67.044H85.635H87.4712V50.6682C86.5531 52.0446 85.8209 53.0883 85.1402 54.1717C84.551 55.1055 83.7759 55.5694 82.8521 54.9163C81.9283 54.2632 82.0942 53.2805 82.6805 52.3833C84.3451 49.8443 85.9868 47.2899 87.6771 44.7722C88.5495 43.4752 89.5848 43.4661 90.4515 44.7478C92.1675 47.3021 93.8607 49.89 95.5453 52.4718C96.0973 53.3172 96.2489 54.2419 95.368 54.8919C94.5357 55.5022 93.7377 55.2123 93.1485 54.3304C92.3906 53.1951 91.6241 52.0659 90.6202 50.5767C90.5773 51.5471 90.5315 52.0782 90.5315 52.6092C90.5315 57.6446 90.5315 62.681 90.5315 67.7184C90.5315 69.8363 90.2913 70.114 88.3121 70.1171C78.8775 70.1171 69.4391 70.1171 59.9969 70.1171H58.0205C57.9833 70.816 57.929 71.3531 57.929 71.8871C57.929 78.0944 57.929 84.2996 57.929 90.5028C57.929 93.1853 57.8117 93.3135 55.2319 93.3135C48.5592 93.3135 41.8866 93.3318 35.2111 93.2952C34.2329 93.2952 33.7181 93.5485 33.3491 94.6197C32.0134 98.5015 28.2524 100.687 24.6915 99.8076C20.8618 98.8494 18.2934 95.2727 18.5594 91.2627C18.7128 89.2682 19.5308 87.3984 20.8651 85.992C22.1994 84.5857 23.9617 83.7359 25.8327 83.5967C29.0589 83.3404 32.185 85.5773 33.4378 89.1112C33.7009 89.8559 33.9497 90.274 34.8078 90.2678C41.1944 90.2282 47.5811 90.2495 53.9706 90.2465C54.2863 90.2232 54.6005 90.1804 54.9116 90.1183ZM26.2331 86.7431C25.6152 86.7239 25 86.8368 24.4236 87.0751C23.8472 87.3134 23.3213 87.6723 22.8768 88.1307C22.4322 88.5891 22.0781 89.1376 21.8353 89.7442C21.5924 90.3507 21.4656 91.0029 21.4624 91.6625C21.4475 92.3356 21.5594 93.005 21.7916 93.6311C22.0238 94.2571 22.3715 94.827 22.8141 95.307C23.2566 95.7869 23.7851 96.167 24.368 96.4248C24.9509 96.6826 25.5764 96.8129 26.2074 96.8078C26.8258 96.8062 27.4379 96.6744 28.0086 96.42C28.5792 96.1657 29.0972 95.7937 29.5329 95.3254C29.9687 94.857 30.3135 94.3016 30.5477 93.6909C30.782 93.0802 30.901 92.4261 30.898 91.7663C30.9103 91.1069 30.7983 90.4516 30.5688 89.8392C30.3393 89.2268 29.9968 88.6699 29.5617 88.2014C29.1267 87.7329 28.6079 87.3625 28.0361 87.1119C27.4643 86.8614 26.8512 86.736 26.2331 86.7431Z" fill="black"/>
<path d="M0.00287318 65.1337C0.00287318 59.7402 0.00287318 54.3488 0.00287318 48.9593C0.00287318 44.6625 2.92592 41.5161 6.91293 41.5039C12.5359 41.4876 18.1608 41.4876 23.7876 41.5039C27.6946 41.5039 30.6376 44.6686 30.6519 48.8281C30.6519 51.0681 30.6519 53.3051 30.6519 55.542C30.6519 56.5338 30.4975 57.4432 29.3163 57.4432C28.135 57.4432 28.0035 56.5277 28.0092 55.542C28.0092 53.4546 28.0292 51.3702 28.0092 49.2828C27.9606 46.0754 26.2931 44.3176 23.2585 44.3115C17.9673 44.2952 12.6751 44.2952 7.38199 44.3115C4.38458 44.3115 2.67708 46.1029 2.67136 49.3225C2.64467 59.9569 2.64467 70.5912 2.67136 81.2256C2.67136 83.667 4.08427 85.3607 6.00055 85.3821C7.91683 85.4034 9.37549 83.7036 9.37549 81.2866C9.41267 74.5727 9.37549 67.8589 9.37549 61.145C9.37549 60.6354 9.23535 60.0525 9.42412 59.6374C9.69583 59.0271 10.2078 58.5571 10.6168 58.0261C11.0916 58.5175 11.5921 58.9874 12.0182 59.5184C12.1384 59.668 12.0497 60.0128 12.0526 60.2661C12.0526 67.3889 12.0754 74.5117 12.0526 81.6284C12.0383 85.1623 9.69011 87.9334 6.51823 88.2751C3.61235 88.5803 0.797986 86.2762 0.108696 82.9803C0.0149541 82.4319 -0.0243524 81.8744 -0.00856975 81.3171C-0.00475625 75.9216 -0.000940313 70.5271 0.00287318 65.1337Z" fill="black"/>
<path d="M60.5287 28.186C63.1486 28.186 65.7771 28.2745 68.3912 28.1341C69.3091 28.0682 70.1805 27.6785 70.8681 27.0264C74.5862 23.2117 78.1385 19.2444 81.8367 15.4297C85.3718 11.7676 90.9204 13.4094 92.093 18.4204C92.6851 20.9503 91.8871 23.0865 90.1625 24.9145C84.9885 30.4077 79.866 35.9375 74.6635 41.394C74.2289 41.8122 73.8892 42.3303 73.6702 42.9093C73.4512 43.4883 73.3585 44.1129 73.3993 44.7357C73.488 48.3459 73.425 51.9592 73.4536 55.5694C73.4536 56.72 73.1934 57.7362 71.9807 57.7057C70.768 57.6752 70.5506 56.6803 70.5506 55.5237C70.5907 51.3 70.522 47.0764 70.6278 42.8558C70.6801 41.9274 71.0294 41.0462 71.6174 40.3595C77.0288 34.4788 82.5031 28.6682 87.9688 22.8485C88.8468 21.9147 89.539 20.9015 89.3502 19.5068C89.1614 18.1122 88.4721 17.0959 87.2337 16.687C85.9953 16.2781 84.7826 16.4825 83.8016 17.5323C82.0855 19.3634 80.3694 21.1944 78.6533 23.0255C76.4282 25.3998 74.243 27.8168 71.9521 30.1178C71.3434 30.7283 70.557 31.0978 69.724 31.1645C64.0524 31.2408 58.3808 31.189 52.7092 31.1645C52.3774 31.1645 51.9398 31.2317 51.7424 31.0425C51.2963 30.6122 50.6699 30.0262 50.6899 29.5319C50.7099 29.0955 51.4879 28.363 51.9598 28.3356C54.1936 28.2013 56.4388 28.2654 58.6782 28.2593H60.5373L60.5287 28.186Z" fill="black"/>
<path d="M14.5237 13.3759C19.609 13.0708 25.9843 17.3219 25.9871 25.5036C25.99 33.6854 19.6176 37.79 14.5237 37.6679C8.21432 37.5154 3.20624 32.2633 3.12902 25.5769C3.04894 18.7257 8.65478 13.0647 14.5237 13.3759ZM23.2242 25.525C23.2449 24.3062 23.0367 23.0952 22.612 21.9636C22.1873 20.8319 21.5547 19.8023 20.7514 18.9355C19.9481 18.0687 18.9903 17.3822 17.9345 16.9164C16.8788 16.4506 15.7463 16.2149 14.6038 16.2232C13.4491 16.2123 12.3038 16.4459 11.2341 16.9103C10.1645 17.3748 9.19181 18.0609 8.37232 18.9291C7.55283 19.7972 6.90281 20.8302 6.45987 21.9681C6.01693 23.106 5.78986 24.3264 5.79179 25.5586C5.82336 28.0189 6.76138 30.3671 8.40296 32.0953C10.0445 33.8234 12.2577 34.7926 14.5638 34.7932C15.7065 34.8051 16.8399 34.5733 17.8975 34.1114C18.9551 33.6495 19.9156 32.9669 20.7226 32.1036C21.5296 31.2402 22.1668 30.2136 22.5969 29.0839C23.027 27.9542 23.2412 26.7442 23.2271 25.525H23.2242Z" fill="black"/>
<path d="M59.8508 24.4628C57.5427 24.3306 55.324 23.4667 53.4785 21.9817C52.7663 21.3927 52.2715 20.6786 52.8464 19.7875C53.4699 18.8232 54.2993 19.0795 55.0859 19.6837C56.2086 20.5895 57.5198 21.1925 58.9078 21.4416C60.2959 21.6907 61.7198 21.5783 63.0584 21.1142C64.3971 20.6501 65.6108 19.8479 66.5966 18.7758C67.5823 17.7037 68.3108 16.3935 68.7201 14.9566C69.3281 12.7722 69.1699 10.4263 68.2751 8.35733C67.3803 6.28832 65.8101 4.6377 63.8579 3.71389C61.8776 2.78803 59.6459 2.67869 57.5945 3.407C55.543 4.13532 53.8176 5.64955 52.752 7.65677C52.2315 8.64554 51.8368 10.1531 50.4096 9.26199C49.071 8.42886 49.9119 7.19289 50.4325 6.21023C53.0066 1.29079 58.1233 -0.50364 61.5698 0.134177C67.3301 1.2084 70.7765 4.91018 71.6317 10.5529C72.6928 17.5384 67.5188 24.4414 59.8508 24.4628Z" fill="black"/>
<path d="M48.4391 16.6687C48.4391 25.6622 43.4996 31.1309 37.0529 31.0668C35.1452 31.0485 33.2261 30.0689 31.3527 29.4036C30.4947 29.0985 30.0084 28.3142 30.4947 27.3345C31.0181 26.2664 31.8389 26.4373 32.6912 26.9317C38.1769 30.1116 44.249 26.7425 45.5303 21.1578C46.0061 19.0962 45.8146 16.9236 44.9869 14.9928C44.1593 13.062 42.7441 11.4866 40.9713 10.5224C39.2055 9.59824 37.2002 9.33292 35.2764 9.76892C33.3526 10.2049 31.6215 11.317 30.3602 12.9272C30.1486 13.2019 30.0027 13.6413 29.7367 13.739C29.0961 13.9831 28.2695 14.3951 27.7632 14.154C26.9224 13.7481 27.134 12.857 27.5859 12.0605C30.4718 6.97932 37.3618 5.11774 42.4843 8.16645C46.3712 10.4858 48.3876 14.0716 48.4391 16.6687Z" fill="black"/>
<path d="M37.7564 34.7962C40.2333 34.7962 42.713 34.7962 45.1927 34.7962C49.4286 34.8176 52.406 37.9701 52.426 42.4561C52.4431 46.8293 52.4832 51.2055 52.426 55.5787C52.426 56.2196 52.0627 57.1259 51.5908 57.4372C50.6098 58.0934 49.6974 57.2266 49.6974 55.7252C49.6974 51.6053 49.7289 47.4854 49.7432 43.3656C49.7575 39.2457 48.2102 37.6466 44.369 37.6466C39.6984 37.6466 35.025 37.6618 30.3544 37.6466C29.4106 37.6466 28.1006 37.9853 28.0663 36.3679C28.032 34.6314 29.3648 34.8176 30.4602 34.8145C32.8933 34.7962 35.3253 34.7901 37.7564 34.7962Z" fill="black"/>
<path d="M76.2852 89.6546C75.1039 91.0736 74.04 92.3523 72.9789 93.6218C72.6929 93.9636 72.4326 94.3268 72.1466 94.6656C71.4802 95.4438 70.6679 95.7306 69.8928 94.9707C69.1177 94.2109 69.2636 93.3655 69.93 92.5568C71.34 90.8386 72.7329 89.1053 74.2745 87.2071C73.0475 85.6812 71.8234 84.1553 70.5764 82.666C69.3293 81.1768 69.0862 80.1789 69.8785 79.4098C70.6707 78.6408 71.3772 78.8635 72.7644 80.5359C73.9084 81.8939 75.0324 83.2459 76.2766 84.7321C77.658 83.075 78.9565 81.546 80.2236 79.9835C80.9128 79.1382 81.6765 78.4851 82.6318 79.3976C83.5413 80.2674 83.1638 81.2287 82.4687 82.071C81.3676 83.4076 80.2979 84.7748 79.1367 86.0382C78.3216 86.9294 78.4045 87.5488 79.2139 88.4125C80.3894 89.6637 81.4105 91.0828 82.5174 92.4134C83.2038 93.2343 83.4955 94.1559 82.6604 94.9494C81.748 95.8191 80.9186 95.2973 80.2178 94.4275C78.9537 92.8986 77.6695 91.3574 76.2852 89.6546Z" fill="black"/>
<path d="M36.3322 69.8426C34.8049 67.9261 33.2833 66.1133 31.8847 64.1968C31.7393 63.9362 31.653 63.6429 31.6326 63.3404C31.6123 63.0378 31.6584 62.7344 31.7674 62.4543C31.9448 62.0881 32.7141 61.8653 33.1975 61.9141C33.5893 61.9538 33.9783 62.4421 34.2958 62.8083C35.58 64.2975 36.8384 65.8143 38.2542 67.4988L41.4003 63.6689C41.715 63.2874 42.0381 62.912 42.3556 62.5306C42.9848 61.7737 43.7142 61.2824 44.5579 62.0881C45.4016 62.8937 45.0928 63.8032 44.4235 64.6119C43.3519 65.9099 42.2841 67.2099 41.2202 68.512C40.8827 68.9271 40.568 69.3665 40.1962 69.8548C41.6263 71.6065 43.0077 73.2911 44.4006 74.9543C45.1156 75.8057 45.5189 76.7487 44.5922 77.6063C43.6656 78.4638 42.8561 77.8657 42.1697 76.9959C40.9399 75.4487 39.6785 73.9258 38.2542 72.1802L35.7745 75.171C35.1739 75.8973 34.6705 76.7762 33.944 77.2919C33.4349 77.6551 32.4653 77.829 31.9734 77.5452C31.1153 77.0569 31.2383 76.0834 31.8504 75.3205C33.2976 73.5169 34.782 71.7347 36.3322 69.8426Z" fill="black"/>
</g>
<defs>
<clipPath id="clip0_370_1097">
<rect width="96" height="100" fill="white"/>
</clipPath>
</defs>
</svg>
